{
    "accessors" : [
        {
            "bufferView" : 0, 
            "componentType" : 5125, 
            "count" : 70848, 
            "max" : [
                67778
            ], 
            "min" : [
                0
            ], 
            "type" : "SCALAR"
        }, 
        {
            "bufferView" : 1, 
            "componentType" : 5126, 
            "count" : 67779, 
            "max" : [
                1.399999976158142, 
                0.20445863902568817, 
                0.3500000536441803
            ], 
            "min" : [
                -1.529898518981554e-08, 
                -0.1999589055776596, 
                -0.3499999940395355
            ], 
            "type" : "VEC3"
        }, 
        {
            "bufferView" : 2, 
            "componentType" : 5126, 
            "count" : 67779, 
            "max" : [
                1.0, 
                1.0, 
                1.0
            ], 
            "min" : [
                -1.0, 
                -1.0, 
                -1.0
            ], 
            "type" : "VEC3"
        }
    ], 
    "asset" : {
        "generator" : "Khronos Blender glTF 2.0 exporter", 
        "version" : "2.0"
    }, 
    "bufferViews" : [
        {
            "buffer" : 0, 
            "byteLength" : 283392, 
            "byteOffset" : 0, 
            "target" : 34963
        }, 
        {
            "buffer" : 0, 
            "byteLength" : 813348, 
            "byteOffset" : 283392, 
            "target" : 34962
        }, 
        {
            "buffer" : 0, 
            "byteLength" : 813348, 
            "byteOffset" : 1096740, 
            "target" : 34962
        }
    ], 
    "buffers" : [
        {
            "byteLength" : 1910088, 
            "uri" : "data:application/octet-stream;base64,"
        }
    ], 
    "materials" : [
        {
            "name" : "Material.001", 
            "pbrMetallicRoughness" : {
                "baseColorFactor" : [
                    0.5558091998100281, 
                    0.5558091998100281, 
                    0.5558091998100281, 
                    1.0
                ], 
                "metallicFactor" : 0.14659684896469116, 
                "roughnessFactor" : 0.8507853150367737
            }
        }
    ], 
    "meshes" : [
        {
            "name" : "Plaquette", 
            "primitives" : [
                {
                    "attributes" : {
                        "NORMAL" : 2, 
                        "POSITION" : 1
                    }, 
                    "indices" : 0, 
                    "material" : 0
                }
            ]
        }
    ], 
    "nodes" : [
        {
            "mesh" : 0, 
            "name" : "Plaquette"
        }
    ], 
    "scene" : 0, 
    "scenes" : [
        {
            "name" : "Scene", 
            "nodes" : [
                0
            ]
        }
    ]
}
