{
    "accessors" : [
        {
            "bufferView" : 0, 
            "componentType" : 5123, 
            "count" : 3456, 
            "max" : [
                575
            ], 
            "min" : [
                0
            ], 
            "type" : "SCALAR"
        }, 
        {
            "bufferView" : 1, 
            "componentType" : 5126, 
            "count" : 576, 
            "max" : [
                1.25, 
                0.25, 
                1.25
            ], 
            "min" : [
                -1.25, 
                -0.25, 
                -1.25
            ], 
            "type" : "VEC3"
        }, 
        {
            "bufferView" : 2, 
            "componentType" : 5126, 
            "count" : 576, 
            "max" : [
                1.0, 
                0.99993896484375, 
                1.0
            ], 
            "min" : [
                -0.999969482421875, 
                -0.99993896484375, 
                -1.0
            ], 
            "type" : "VEC3"
        }, 
        {
            "bufferView" : 3, 
            "componentType" : 5121, 
            "count" : 372, 
            "max" : [
                191
            ], 
            "min" : [
                0
            ], 
            "type" : "SCALAR"
        }, 
        {
            "bufferView" : 4, 
            "componentType" : 5126, 
            "count" : 192, 
            "max" : [
                1.0, 
                1.0, 
                1.0
            ], 
            "min" : [
                -1.0, 
                -1.0, 
                -1.0
            ], 
            "type" : "VEC3"
        }, 
        {
            "bufferView" : 5, 
            "componentType" : 5126, 
            "count" : 192, 
            "max" : [
                0.9951847195625305, 
                1.0, 
                0.9951847195625305
            ], 
            "min" : [
                -0.9951847791671753, 
                -1.0, 
                -0.9951847791671753
            ], 
            "type" : "VEC3"
        }, 
        {
            "bufferView" : 6, 
            "componentType" : 5123, 
            "count" : 2904, 
            "max" : [
                506
            ], 
            "min" : [
                0
            ], 
            "type" : "SCALAR"
        }, 
        {
            "bufferView" : 7, 
            "componentType" : 5126, 
            "count" : 507, 
            "max" : [
                1.3671875, 
                0.984375, 
                0.8515625
            ], 
            "min" : [
                -1.3671875, 
                -0.984375, 
                -0.8515625
            ], 
            "type" : "VEC3"
        }, 
        {
            "bufferView" : 8, 
            "componentType" : 5126, 
            "count" : 507, 
            "max" : [
                0.9989318251609802, 
                0.999725341796875, 
                0.999969482421875
            ], 
            "min" : [
                -0.9989318251609802, 
                -0.9862666726112366, 
                -0.9753105044364929
            ], 
            "type" : "VEC3"
        }, 
        {
            "bufferView" : 9, 
            "componentType" : 5121, 
            "count" : 186, 
            "max" : [
                127
            ], 
            "min" : [
                0
            ], 
            "type" : "SCALAR"
        }, 
        {
            "bufferView" : 10, 
            "componentType" : 5126, 
            "count" : 128, 
            "max" : [
                1.0, 
                1.0, 
                1.0
            ], 
            "min" : [
                -1.0, 
                -1.0, 
                -1.0
            ], 
            "type" : "VEC3"
        }, 
        {
            "bufferView" : 11, 
            "componentType" : 5126, 
            "count" : 128, 
            "max" : [
                0.89097660779953, 
                0.44548842310905457, 
                0.8909766674041748
            ], 
            "min" : [
                -0.8909767866134644, 
                -1.0, 
                -0.8909766674041748
            ], 
            "type" : "VEC3"
        }
    ], 
    "asset" : {
        "generator" : "Khronos Blender glTF 2.0 exporter", 
        "version" : "2.0"
    }, 
    "bufferViews" : [
        {
            "buffer" : 0, 
            "byteLength" : 6912, 
            "byteOffset" : 0, 
            "target" : 34963
        }, 
        {
            "buffer" : 0, 
            "byteLength" : 6912, 
            "byteOffset" : 6912, 
            "target" : 34962
        }, 
        {
            "buffer" : 0, 
            "byteLength" : 6912, 
            "byteOffset" : 13824, 
            "target" : 34962
        }, 
        {
            "buffer" : 0, 
            "byteLength" : 372, 
            "byteOffset" : 20736, 
            "target" : 34963
        }, 
        {
            "buffer" : 0, 
            "byteLength" : 2304, 
            "byteOffset" : 21108, 
            "target" : 34962
        }, 
        {
            "buffer" : 0, 
            "byteLength" : 2304, 
            "byteOffset" : 23412, 
            "target" : 34962
        }, 
        {
            "buffer" : 0, 
            "byteLength" : 5808, 
            "byteOffset" : 25716, 
            "target" : 34963
        }, 
        {
            "buffer" : 0, 
            "byteLength" : 6084, 
            "byteOffset" : 31524, 
            "target" : 34962
        }, 
        {
            "buffer" : 0, 
            "byteLength" : 6084, 
            "byteOffset" : 37608, 
            "target" : 34962
        }, 
        {
            "buffer" : 0, 
            "byteLength" : 186, 
            "byteOffset" : 43692, 
            "target" : 34963
        }, 
        {
            "buffer" : 0, 
            "byteLength" : 1536, 
            "byteOffset" : 43880, 
            "target" : 34962
        }, 
        {
            "buffer" : 0, 
            "byteLength" : 1536, 
            "byteOffset" : 45416, 
            "target" : 34962
        }
    ], 
    "buffers" : [
        {
            "byteLength" : 46952, 
            "uri" : "export_test.bin"
        }
    ], 
    "materials" : [
        {
            "name" : "MaterialBase001", 
            "pbrMetallicRoughness" : {
                "baseColorFactor" : [
                    0.0, 
                    0.017371831461787224, 
                    1.0, 
                    1.0
                ]
            }
        }, 
        {
            "name" : "MaterialBase02", 
            "pbrMetallicRoughness" : {
                "baseColorFactor" : [
                    0.13156674802303314, 
                    1.0, 
                    0.2255799025297165, 
                    1.0
                ], 
                "metallicFactor" : 0.0, 
                "roughnessFactor" : 0.0
            }
        }, 
        {
            "name" : "MaterialBase03", 
            "pbrMetallicRoughness" : {
                "baseColorFactor" : [
                    1.0, 
                    0.08270235359668732, 
                    0.027579262852668762, 
                    1.0
                ]
            }
        }, 
        {
            "name" : "MaterialBase04", 
            "pbrMetallicRoughness" : {
                "baseColorFactor" : [
                    1.0, 
                    0.0, 
                    0.8459857702255249, 
                    1.0
                ]
            }
        }
    ], 
    "meshes" : [
        {
            "name" : "Torus", 
            "primitives" : [
                {
                    "attributes" : {
                        "NORMAL" : 2, 
                        "POSITION" : 1
                    }, 
                    "indices" : 0, 
                    "material" : 1
                }
            ]
        }, 
        {
            "name" : "Cylinder", 
            "primitives" : [
                {
                    "attributes" : {
                        "NORMAL" : 5, 
                        "POSITION" : 4
                    }, 
                    "indices" : 3, 
                    "material" : 3
                }
            ]
        }, 
        {
            "name" : "Suzanne", 
            "primitives" : [
                {
                    "attributes" : {
                        "NORMAL" : 8, 
                        "POSITION" : 7
                    }, 
                    "indices" : 6, 
                    "material" : 0
                }
            ]
        }, 
        {
            "name" : "Cone", 
            "primitives" : [
                {
                    "attributes" : {
                        "NORMAL" : 11, 
                        "POSITION" : 10
                    }, 
                    "indices" : 9, 
                    "material" : 2
                }
            ]
        }
    ], 
    "nodes" : [
        {
            "mesh" : 3, 
            "name" : "Cone", 
            "translation" : [
                2.514826536178589, 
                -0.3957972824573517, 
                -0.0
            ]
        }, 
        {
            "mesh" : 1, 
            "name" : "Cylinder", 
            "translation" : [
                0.0, 
                0.0, 
                -2.5771660804748535
            ]
        }, 
        {
            "mesh" : 2, 
            "name" : "Suzanne"
        }, 
        {
            "mesh" : 0, 
            "name" : "Torus", 
            "translation" : [
                2.4141311645507812, 
                0.0, 
                -0.0
            ]
        }
    ], 
    "scene" : 0, 
    "scenes" : [
        {
            "name" : "Scene", 
            "nodes" : [
                1, 
                0, 
                3, 
                2
            ]
        }
    ]
}
