{
    "accessors" : [
        {
            "bufferView" : 0, 
            "componentType" : 5121, 
            "count" : 18, 
            "max" : [
                11
            ], 
            "min" : [
                0
            ], 
            "type" : "SCALAR"
        }, 
        {
            "bufferView" : 1, 
            "componentType" : 5126, 
            "count" : 12, 
            "max" : [
                1.0, 
                0.4827716052532196, 
                1.0
            ], 
            "min" : [
                -1.0, 
                0.0, 
                -1.6850708723068237
            ], 
            "type" : "VEC3"
        }, 
        {
            "bufferView" : 2, 
            "componentType" : 5126, 
            "count" : 12, 
            "max" : [
                0.0, 
                1.0, 
                0.9999999403953552
            ], 
            "min" : [
                0.0, 
                -0.0, 
                -0.0
            ], 
            "type" : "VEC3"
        }, 
        {
            "bufferView" : 3, 
            "componentType" : 5126, 
            "count" : 12, 
            "max" : [
                0.0, 
                1.0, 
                -0.0, 
                1.0
            ], 
            "min" : [
                -8.714981447610626e-08, 
                0.0, 
                -1.0, 
                1.0
            ], 
            "type" : "VEC4"
        }, 
        {
            "bufferView" : 4, 
            "componentType" : 5126, 
            "count" : 12, 
            "max" : [
                0.9973406791687012, 
                1.0013200640678406
            ], 
            "min" : [
                -0.002381338272243738, 
                -0.0004410743713378906
            ], 
            "type" : "VEC2"
        }, 
        {
            "bufferView" : 5, 
            "componentType" : 5121, 
            "count" : 372, 
            "max" : [
                129
            ], 
            "min" : [
                0
            ], 
            "type" : "SCALAR"
        }, 
        {
            "bufferView" : 6, 
            "componentType" : 5126, 
            "count" : 130, 
            "max" : [
                1.0, 
                1.0, 
                1.0
            ], 
            "min" : [
                -1.0, 
                -1.0, 
                -1.0
            ], 
            "type" : "VEC3"
        }, 
        {
            "bufferView" : 7, 
            "componentType" : 5126, 
            "count" : 130, 
            "max" : [
                0.7278664708137512, 
                1.0, 
                0.7278664708137512
            ], 
            "min" : [
                -0.7278664708137512, 
                -1.0, 
                -0.7278664708137512
            ], 
            "type" : "VEC3"
        }, 
        {
            "bufferView" : 8, 
            "componentType" : 5126, 
            "count" : 130, 
            "max" : [
                1.0023053884506226, 
                1.0023076832294464
            ], 
            "min" : [
                -0.0023055076599121094, 
                -0.002305269241333008
            ], 
            "type" : "VEC2"
        }
    ], 
    "asset" : {
        "generator" : "Khronos Blender glTF 2.0 exporter", 
        "version" : "2.0"
    }, 
    "bufferViews" : [
        {
            "buffer" : 0, 
            "byteLength" : 18, 
            "byteOffset" : 0, 
            "target" : 34963
        }, 
        {
            "buffer" : 0, 
            "byteLength" : 144, 
            "byteOffset" : 20, 
            "target" : 34962
        }, 
        {
            "buffer" : 0, 
            "byteLength" : 144, 
            "byteOffset" : 164, 
            "target" : 34962
        }, 
        {
            "buffer" : 0, 
            "byteLength" : 192, 
            "byteOffset" : 308, 
            "target" : 34962
        }, 
        {
            "buffer" : 0, 
            "byteLength" : 96, 
            "byteOffset" : 500, 
            "target" : 34962
        }, 
        {
            "buffer" : 0, 
            "byteLength" : 372, 
            "byteOffset" : 596, 
            "target" : 34963
        }, 
        {
            "buffer" : 0, 
            "byteLength" : 1560, 
            "byteOffset" : 968, 
            "target" : 34962
        }, 
        {
            "buffer" : 0, 
            "byteLength" : 1560, 
            "byteOffset" : 2528, 
            "target" : 34962
        }, 
        {
            "buffer" : 0, 
            "byteLength" : 1040, 
            "byteOffset" : 4088, 
            "target" : 34962
        }
    ], 
    "buffers" : [
        {
            "byteLength" : 5128, 
            "uri" : "export_test.bin"
        }
    ], 
    "images" : [
        {
            "uri" : "uv_grid.png"
        }
    ], 
    "materials" : [
        {
            "doubleSided" : true, 
            "name" : "MaterialBaseTexture01", 
            "pbrMetallicRoughness" : {
                "baseColorTexture" : {
                    "index" : 0
                }, 
                "metallicFactor" : 0.5, 
                "roughnessFactor" : 0.5
            }
        }
    ], 
    "meshes" : [
        {
            "name" : "Plane", 
            "primitives" : [
                {
                    "attributes" : {
                        "NORMAL" : 2, 
                        "POSITION" : 1, 
                        "TANGENT" : 3, 
                        "TEXCOORD_0" : 4
                    }, 
                    "indices" : 0, 
                    "material" : 0
                }
            ]
        }, 
        {
            "name" : "Cylinder.001", 
            "primitives" : [
                {
                    "attributes" : {
                        "NORMAL" : 7, 
                        "POSITION" : 6, 
                        "TEXCOORD_0" : 8
                    }, 
                    "indices" : 5, 
                    "material" : 0
                }
            ]
        }
    ], 
    "nodes" : [
        {
            "mesh" : 1, 
            "name" : "Cylinder", 
            "rotation" : [
                0.0, 
                0.9958844780921936, 
                -0.0, 
                0.09063262492418289
            ], 
            "scale" : [
                0.9999999403953552, 
                1.0, 
                0.9999999403953552
            ], 
            "translation" : [
                0.0, 
                0.0, 
                -2.6820101737976074
            ]
        }, 
        {
            "mesh" : 0, 
            "name" : "Plane"
        }
    ], 
    "samplers" : [
        {}
    ], 
    "scene" : 0, 
    "scenes" : [
        {
            "name" : "Scene", 
            "nodes" : [
                0, 
                1
            ]
        }
    ], 
    "textures" : [
        {
            "sampler" : 0, 
            "source" : 0
        }
    ]
}
