{
    "accessors" : [
        {
            "bufferView" : 0, 
            "componentType" : 5121, 
            "count" : 36, 
            "max" : [
                23
            ], 
            "min" : [
                0
            ], 
            "type" : "SCALAR"
        }, 
        {
            "bufferView" : 1, 
            "componentType" : 5126, 
            "count" : 24, 
            "max" : [
                1.0000004768371582, 
                1.0, 
                1.0000005960464478
            ], 
            "min" : [
                -1.0000003576278687, 
                -1.0, 
                -1.0000003576278687
            ], 
            "type" : "VEC3"
        }, 
        {
            "bufferView" : 2, 
            "componentType" : 5126, 
            "count" : 24, 
            "max" : [
                1.0, 
                1.0, 
                1.0
            ], 
            "min" : [
                -1.0, 
                -1.0, 
                -1.0
            ], 
            "type" : "VEC3"
        }, 
        {
            "bufferView" : 3, 
            "componentType" : 5121, 
            "count" : 36, 
            "max" : [
                23
            ], 
            "min" : [
                0
            ], 
            "type" : "SCALAR"
        }, 
        {
            "bufferView" : 4, 
            "componentType" : 5126, 
            "count" : 24, 
            "max" : [
                1.0, 
                1.0, 
                1.0
            ], 
            "min" : [
                -1.0, 
                -1.0, 
                -1.0
            ], 
            "type" : "VEC3"
        }, 
        {
            "bufferView" : 5, 
            "componentType" : 5126, 
            "count" : 24, 
            "max" : [
                1.0, 
                1.0, 
                1.0
            ], 
            "min" : [
                -1.0, 
                -1.0, 
                -1.0
            ], 
            "type" : "VEC3"
        }, 
        {
            "bufferView" : 6, 
            "componentType" : 5121, 
            "count" : 84, 
            "max" : [
                47
            ], 
            "min" : [
                0
            ], 
            "type" : "SCALAR"
        }, 
        {
            "bufferView" : 7, 
            "componentType" : 5126, 
            "count" : 48, 
            "max" : [
                1.0, 
                1.8557082414627075, 
                1.0
            ], 
            "min" : [
                -1.0, 
                -1.0, 
                -1.0
            ], 
            "type" : "VEC3"
        }, 
        {
            "bufferView" : 8, 
            "componentType" : 5126, 
            "count" : 48, 
            "max" : [
                1.0, 
                1.0, 
                1.0
            ], 
            "min" : [
                -1.0, 
                -1.0, 
                -1.0
            ], 
            "type" : "VEC3"
        }, 
        {
            "bufferView" : 9, 
            "componentType" : 5126, 
            "count" : 60, 
            "max" : [
                2.4583333333333335
            ], 
            "min" : [
                0.0
            ], 
            "type" : "SCALAR"
        }, 
        {
            "bufferView" : 10, 
            "componentType" : 5126, 
            "count" : 60, 
            "max" : [
                0.0, 
                5.0, 
                -0.0
            ], 
            "min" : [
                0.0, 
                0.0, 
                -0.0
            ], 
            "type" : "VEC3"
        }, 
        {
            "bufferView" : 11, 
            "componentType" : 5126, 
            "count" : 1, 
            "max" : [
                0.75
            ], 
            "min" : [
                0.75
            ], 
            "type" : "SCALAR"
        }, 
        {
            "bufferView" : 12, 
            "componentType" : 5126, 
            "count" : 1, 
            "max" : [
                0.0, 
                0.0, 
                -0.0, 
                1.0
            ], 
            "min" : [
                0.0, 
                0.0, 
                -0.0, 
                1.0
            ], 
            "type" : "VEC4"
        }, 
        {
            "bufferView" : 13, 
            "componentType" : 5126, 
            "count" : 1, 
            "max" : [
                0.75
            ], 
            "min" : [
                0.75
            ], 
            "type" : "SCALAR"
        }, 
        {
            "bufferView" : 14, 
            "componentType" : 5126, 
            "count" : 1, 
            "max" : [
                1.0, 
                1.0, 
                1.0
            ], 
            "min" : [
                1.0, 
                1.0, 
                1.0
            ], 
            "type" : "VEC3"
        }, 
        {
            "bufferView" : 15, 
            "componentType" : 5126, 
            "count" : 1, 
            "max" : [
                1.625
            ], 
            "min" : [
                1.625
            ], 
            "type" : "SCALAR"
        }, 
        {
            "bufferView" : 16, 
            "componentType" : 5126, 
            "count" : 1, 
            "max" : [
                0.0, 
                0.0, 
                -0.0
            ], 
            "min" : [
                0.0, 
                0.0, 
                -0.0
            ], 
            "type" : "VEC3"
        }, 
        {
            "bufferView" : 17, 
            "componentType" : 5126, 
            "count" : 22, 
            "max" : [
                1.625
            ], 
            "min" : [
                0.75
            ], 
            "type" : "SCALAR"
        }, 
        {
            "bufferView" : 18, 
            "componentType" : 5126, 
            "count" : 22, 
            "max" : [
                1.0, 
                0.0, 
                -0.0, 
                1.0
            ], 
            "min" : [
                0.0, 
                0.0, 
                -0.0, 
                7.549790126404332e-08
            ], 
            "type" : "VEC4"
        }, 
        {
            "bufferView" : 19, 
            "componentType" : 5126, 
            "count" : 60, 
            "max" : [
                2.4583333333333335
            ], 
            "min" : [
                0.0
            ], 
            "type" : "SCALAR"
        }, 
        {
            "bufferView" : 20, 
            "componentType" : 5126, 
            "count" : 60, 
            "max" : [
                1.0, 
                1.0, 
                1.0
            ], 
            "min" : [
                1.0, 
                1.0, 
                1.0
            ], 
            "type" : "VEC3"
        }, 
        {
            "bufferView" : 21, 
            "componentType" : 5126, 
            "count" : 60, 
            "max" : [
                2.4583333333333335
            ], 
            "min" : [
                0.0
            ], 
            "type" : "SCALAR"
        }, 
        {
            "bufferView" : 22, 
            "componentType" : 5126, 
            "count" : 60, 
            "max" : [
                0.0, 
                3.0, 
                -5.0
            ], 
            "min" : [
                0.0, 
                0.0, 
                -5.0
            ], 
            "type" : "VEC3"
        }, 
        {
            "bufferView" : 23, 
            "componentType" : 5126, 
            "count" : 60, 
            "max" : [
                2.4583333333333335
            ], 
            "min" : [
                0.0
            ], 
            "type" : "SCALAR"
        }, 
        {
            "bufferView" : 24, 
            "componentType" : 5126, 
            "count" : 60, 
            "max" : [
                0.0, 
                0.9999993443489075, 
                -0.0, 
                0.9999972581863403
            ], 
            "min" : [
                0.0, 
                0.0022856295108795166, 
                -0.0, 
                -0.9999973773956299
            ], 
            "type" : "VEC4"
        }, 
        {
            "bufferView" : 25, 
            "componentType" : 5126, 
            "count" : 60, 
            "max" : [
                2.4583333333333335
            ], 
            "min" : [
                0.0
            ], 
            "type" : "SCALAR"
        }, 
        {
            "bufferView" : 26, 
            "componentType" : 5126, 
            "count" : 60, 
            "max" : [
                1.0, 
                1.0, 
                1.0
            ], 
            "min" : [
                0.30000001192092896, 
                0.30000001192092896, 
                0.30000001192092896
            ], 
            "type" : "VEC3"
        }
    ], 
    "animations" : [
        {
            "channels" : [
                {
                    "sampler" : 0, 
                    "target" : {
                        "node" : 0, 
                        "path" : "translation"
                    }
                }, 
                {
                    "sampler" : 1, 
                    "target" : {
                        "node" : 0, 
                        "path" : "rotation"
                    }
                }, 
                {
                    "sampler" : 2, 
                    "target" : {
                        "node" : 0, 
                        "path" : "scale"
                    }
                }, 
                {
                    "sampler" : 3, 
                    "target" : {
                        "node" : 1, 
                        "path" : "translation"
                    }
                }, 
                {
                    "sampler" : 4, 
                    "target" : {
                        "node" : 1, 
                        "path" : "rotation"
                    }
                }, 
                {
                    "sampler" : 5, 
                    "target" : {
                        "node" : 1, 
                        "path" : "scale"
                    }
                }, 
                {
                    "sampler" : 6, 
                    "target" : {
                        "node" : 2, 
                        "path" : "translation"
                    }
                }, 
                {
                    "sampler" : 7, 
                    "target" : {
                        "node" : 2, 
                        "path" : "rotation"
                    }
                }, 
                {
                    "sampler" : 8, 
                    "target" : {
                        "node" : 2, 
                        "path" : "scale"
                    }
                }, 
                {
                    "sampler" : 9, 
                    "target" : {
                        "node" : 4, 
                        "path" : "translation"
                    }
                }, 
                {
                    "sampler" : 10, 
                    "target" : {
                        "node" : 4, 
                        "path" : "rotation"
                    }
                }, 
                {
                    "sampler" : 11, 
                    "target" : {
                        "node" : 4, 
                        "path" : "scale"
                    }
                }
            ], 
            "samplers" : [
                {
                    "input" : 9, 
                    "interpolation" : "LINEAR", 
                    "output" : 10
                }, 
                {
                    "input" : 11, 
                    "interpolation" : "LINEAR", 
                    "output" : 12
                }, 
                {
                    "input" : 13, 
                    "interpolation" : "LINEAR", 
                    "output" : 14
                }, 
                {
                    "input" : 15, 
                    "interpolation" : "LINEAR", 
                    "output" : 16
                }, 
                {
                    "input" : 17, 
                    "interpolation" : "LINEAR", 
                    "output" : 18
                }, 
                {
                    "input" : 19, 
                    "interpolation" : "LINEAR", 
                    "output" : 20
                }, 
                {
                    "input" : -1, 
                    "interpolation" : "LINEAR", 
                    "output" : -1
                }, 
                {
                    "input" : -1, 
                    "interpolation" : "LINEAR", 
                    "output" : -1
                }, 
                {
                    "input" : -1, 
                    "interpolation" : "LINEAR", 
                    "output" : -1
                }, 
                {
                    "input" : 21, 
                    "interpolation" : "LINEAR", 
                    "output" : 22
                }, 
                {
                    "input" : 23, 
                    "interpolation" : "LINEAR", 
                    "output" : 24
                }, 
                {
                    "input" : 25, 
                    "interpolation" : "LINEAR", 
                    "output" : 26
                }
            ]
        }
    ], 
    "asset" : {
        "generator" : "Khronos Blender glTF 2.0 exporter", 
        "version" : "2.0"
    }, 
    "bufferViews" : [
        {
            "buffer" : 0, 
            "byteLength" : 36, 
            "byteOffset" : 0, 
            "target" : 34963
        }, 
        {
            "buffer" : 0, 
            "byteLength" : 288, 
            "byteOffset" : 36, 
            "target" : 34962
        }, 
        {
            "buffer" : 0, 
            "byteLength" : 288, 
            "byteOffset" : 324, 
            "target" : 34962
        }, 
        {
            "buffer" : 0, 
            "byteLength" : 36, 
            "byteOffset" : 612, 
            "target" : 34963
        }, 
        {
            "buffer" : 0, 
            "byteLength" : 288, 
            "byteOffset" : 648, 
            "target" : 34962
        }, 
        {
            "buffer" : 0, 
            "byteLength" : 288, 
            "byteOffset" : 936, 
            "target" : 34962
        }, 
        {
            "buffer" : 0, 
            "byteLength" : 84, 
            "byteOffset" : 1224, 
            "target" : 34963
        }, 
        {
            "buffer" : 0, 
            "byteLength" : 576, 
            "byteOffset" : 1308, 
            "target" : 34962
        }, 
        {
            "buffer" : 0, 
            "byteLength" : 576, 
            "byteOffset" : 1884, 
            "target" : 34962
        }, 
        {
            "buffer" : 0, 
            "byteLength" : 240, 
            "byteOffset" : 2460
        }, 
        {
            "buffer" : 0, 
            "byteLength" : 720, 
            "byteOffset" : 2700
        }, 
        {
            "buffer" : 0, 
            "byteLength" : 4, 
            "byteOffset" : 3420
        }, 
        {
            "buffer" : 0, 
            "byteLength" : 16, 
            "byteOffset" : 3424
        }, 
        {
            "buffer" : 0, 
            "byteLength" : 4, 
            "byteOffset" : 3440
        }, 
        {
            "buffer" : 0, 
            "byteLength" : 12, 
            "byteOffset" : 3444
        }, 
        {
            "buffer" : 0, 
            "byteLength" : 4, 
            "byteOffset" : 3456
        }, 
        {
            "buffer" : 0, 
            "byteLength" : 12, 
            "byteOffset" : 3460
        }, 
        {
            "buffer" : 0, 
            "byteLength" : 88, 
            "byteOffset" : 3472
        }, 
        {
            "buffer" : 0, 
            "byteLength" : 352, 
            "byteOffset" : 3560
        }, 
        {
            "buffer" : 0, 
            "byteLength" : 240, 
            "byteOffset" : 3912
        }, 
        {
            "buffer" : 0, 
            "byteLength" : 720, 
            "byteOffset" : 4152
        }, 
        {
            "buffer" : 0, 
            "byteLength" : 240, 
            "byteOffset" : 4872
        }, 
        {
            "buffer" : 0, 
            "byteLength" : 720, 
            "byteOffset" : 5112
        }, 
        {
            "buffer" : 0, 
            "byteLength" : 240, 
            "byteOffset" : 5832
        }, 
        {
            "buffer" : 0, 
            "byteLength" : 960, 
            "byteOffset" : 6072
        }, 
        {
            "buffer" : 0, 
            "byteLength" : 240, 
            "byteOffset" : 7032
        }, 
        {
            "buffer" : 0, 
            "byteLength" : 720, 
            "byteOffset" : 7272
        }
    ], 
    "buffers" : [
        {
            "byteLength" : 7992, 
            "uri" : "animation_test.bin"
        }
    ], 
    "materials" : [
        {
            "name" : "Material", 
            "pbrMetallicRoughness" : {
                "baseColorFactor" : [
                    0.6400000190734865, 
                    0.6400000190734865, 
                    0.6400000190734865, 
                    1.0
                ], 
                "metallicFactor" : 0.0
            }
        }
    ], 
    "meshes" : [
        {
            "name" : "Cube", 
            "primitives" : [
                {
                    "attributes" : {
                        "NORMAL" : 2, 
                        "POSITION" : 1
                    }, 
                    "indices" : 0, 
                    "material" : 0
                }
            ]
        }, 
        {
            "name" : "Cube.002", 
            "primitives" : [
                {
                    "attributes" : {
                        "NORMAL" : 5, 
                        "POSITION" : 4
                    }, 
                    "indices" : 3
                }
            ]
        }, 
        {
            "name" : "Cube.001", 
            "primitives" : [
                {
                    "attributes" : {
                        "NORMAL" : 8, 
                        "POSITION" : 7
                    }, 
                    "indices" : 6
                }
            ]
        }
    ], 
    "nodes" : [
        {
            "children" : [
                1
            ], 
            "name" : "arrow01"
        }, 
        {
            "children" : [
                3
            ], 
            "name" : "arrow02"
        }, 
        {
            "mesh" : 2, 
            "name" : "Cube", 
            "translation" : [
                0.0, 
                -0.4651324152946472, 
                -0.0
            ]
        }, 
        {
            "mesh" : 1, 
            "name" : "Cube.001", 
            "scale" : [
                0.763965368270874, 
                1.3075004816055298, 
                0.763965368270874
            ]
        }, 
        {
            "mesh" : 0, 
            "name" : "CubeRotated", 
            "translation" : [
                0.0, 
                0.0, 
                -5.0
            ]
        }
    ], 
    "scene" : 0, 
    "scenes" : [
        {
            "name" : "Scene", 
            "nodes" : [
                0, 
                2, 
                4
            ]
        }
    ]
}
