{
    "accessors" : [
        {
            "bufferView" : 0, 
            "componentType" : 5123, 
            "count" : 266352, 
            "max" : [
                52910
            ], 
            "min" : [
                0
            ], 
            "type" : "SCALAR"
        }, 
        {
            "bufferView" : 1, 
            "componentType" : 5126, 
            "count" : 52911, 
            "max" : [
                0.37768790125846863, 
                0.404891699552536, 
                0.4050000309944153
            ], 
            "min" : [
                -0.377687931060791, 
                -0.4024772346019745, 
                -0.4049960672855377
            ], 
            "type" : "VEC3"
        }, 
        {
            "bufferView" : 2, 
            "componentType" : 5126, 
            "count" : 52911, 
            "max" : [
                1.0, 
                1.0, 
                1.0
            ], 
            "min" : [
                -1.0, 
                -1.0, 
                -1.0
            ], 
            "type" : "VEC3"
        }
    ], 
    "asset" : {
        "generator" : "Khronos Blender glTF 2.0 exporter", 
        "version" : "2.0"
    }, 
    "bufferViews" : [
        {
            "buffer" : 0, 
            "byteLength" : 532704, 
            "byteOffset" : 0, 
            "target" : 34963
        }, 
        {
            "buffer" : 0, 
            "byteLength" : 634932, 
            "byteOffset" : 532704, 
            "target" : 34962
        }, 
        {
            "buffer" : 0, 
            "byteLength" : 634932, 
            "byteOffset" : 1167636, 
            "target" : 34962
        }
    ], 
    "buffers" : [
        {
            "byteLength" : 1802568, 
            "uri" : "data:application/octet-stream;base64,"
        }
    ], 
    "materials" : [
        {
            "name" : "MaterialGltf", 
            "pbrMetallicRoughness" : {
                "baseColorFactor" : [
                    0.5558091998100281, 
                    0.5558091998100281, 
                    0.5558091998100281, 
                    1.0
                ], 
                "metallicFactor" : 0.14659684896469116, 
                "roughnessFactor" : 0.8507853150367737
            }
        }
    ], 
    "meshes" : [
        {
            "name" : "Perle", 
            "primitives" : [
                {
                    "attributes" : {
                        "NORMAL" : 2, 
                        "POSITION" : 1
                    }, 
                    "indices" : 0, 
                    "material" : 0
                }
            ]
        }
    ], 
    "nodes" : [
        {
            "mesh" : 0, 
            "name" : "Perle"
        }
    ], 
    "scene" : 0, 
    "scenes" : [
        {
            "name" : "Scene", 
            "nodes" : [
                0
            ]
        }
    ]
}
